# xmcd
#
# Track frame offsets: 
#        150
#        21995
#        34115
#        54170
#        70505
#        86898
#        105748
#        120855
#        140214
#        173517
#        187145
#
# Disc length: 2731 seconds
#
# Revision: 0
# Processed by: cddbd v1.5.2PL0 Copyright (c) Steve Scherf et al.
# Submitted via: ExactAudioCopy v1.0b3
#
DISCID=900aa90b
DTITLE=Garth Brooks - The Road (The Live Recordings) Disc 2
DYEAR=2016
DGENRE=Country
TTITLE0=The Thunder Rolls (The Long Version)
TTITLE1=Two Of A Kind, Workin' On A Full House
TTITLE2=Two Pina Coladas
TTITLE3=More Than A Memory
TTITLE4=Good Ride Cowboy
TTITLE5=Wild As The Wind (Duet With Trisha Yearwood)
TTITLE6=Working For A Living (The Duet With Huey Lewis in LA)
TTITLE7=It's Your Song
TTITLE8=New York State Of Mind (The Duet With Billy Joel)
TTITLE9=Midnight Sun
TTITLE10=The Dance
EXTD=
EXTT0=
EXTT1=
EXTT2=
EXTT3=
EXTT4=
EXTT5=
EXTT6=
EXTT7=
EXTT8=
EXTT9=
EXTT10=
PLAYORDER=
